<svg xmlns="http://www.w3.org/2000/svg" version="1.1" xmlns:xlink="http://www.w3.org/1999/xlink" xmlns:svgjs="http://svgjs.dev/svgjs" width="1440" height="560" preserveAspectRatio="none" viewBox="0 0 1440 560"><g mask="url(&quot;#SvgjsMask1004&quot;)" fill="none"><rect width="1440" height="560" x="0" y="0" fill="rgba(254, 254, 254, 0.996078431372549)"></rect><path d="M0 200.43L10 167.01L20 220.87L30 228.52L40 222.28L50 186.37L60 135.71L70 173.67L80 159.95L90 117.38L100 178.96L110 214.16L120 278.99L130 209.91L140 211.55L150 208.11L160 250.66L170 291.52L180 242.32L190 309.96L200 365.79L210 424.92L220 434.68L230 391.5L240 372.04L250 422.31L260 460.52L270 503.06L280 502.93L290 438L300 484.27L310 527.04L320 523.54L330 511.44L340 476.42L350 534.4L360 525.3L370 466.75L380 465.21L390 520.5L400 547.9L410 514.67L420 527.92L430 490.07L440 554.29L450 541.61L460 474.83L470 484.34L480 452.03L490 508.08L500 482.88L510 427.44L520 438.78L530 443.53L540 434.96L550 491.32L560 546.27L570 518.75L580 550.11L590 555.83L600 553.37L610 499.97L620 488.4L630 429.32L640 460.32L650 519.24L660 521.1L670 553.19L680 503.88L690 463.59L700 395.9L710 440.85L720 452.96L730 406.24L740 425.2L750 428.26L760 430.04L770 489.3L780 472.81L790 541.35L800 521.34L810 554.94L820 510.61L830 487.25L840 486.7L850 419.27L860 388.27L870 385.96L880 316.55L890 328.47L900 259.52L910 290.64L920 267.17L930 270.44L940 266.24L950 241.01L960 262.75L970 291.94L980 324.05L990 348.29L1000 365.78L1010 371.56L1020 405.73L1030 473.87L1040 413.81L1050 403.01L1060 419.96L1070 443.92L1080 471.13L1090 494.67L1100 525.08L1110 517.68L1120 487.79L1130 442.36L1140 414.4L1150 381.92L1160 373.02L1170 391.14L1180 398.41L1190 435.24L1200 411.81L1210 438.89L1220 490.16L1230 454.25L1240 424.68L1250 462.45L1260 482.29L1270 444.92L1280 447.05L1290 409.52L1300 391.66L1310 395.17L1320 421.74L1330 414.78L1340 432.35L1350 406.12L1360 416.12L1370 382.18L1380 403.64L1390 468.25L1400 509.98L1410 508.34L1420 465.57L1430 515.3L1440 546.28" stroke="rgba(40, 184, 176, 1)" stroke-width="2"></path><path d="M0 200.43L10 167.01L20 220.87L30 228.52L40 222.28L50 186.37L60 135.71L70 173.67L80 159.95L90 117.38L100 178.96L110 214.16L120 278.99L130 209.91L140 211.55L150 208.11L160 250.66L170 291.52L180 242.32L190 309.96L200 365.79L210 424.92L220 434.68L230 391.5L240 372.04L250 422.31L260 460.52L270 503.06L280 502.93L290 438L300 484.27L310 527.04L320 523.54L330 511.44L340 476.42L350 534.4L360 525.3L370 466.75L380 465.21L390 520.5L400 547.9L410 514.67L420 527.92L430 490.07L440 554.29L450 541.61L460 474.83L470 484.34L480 452.03L490 508.08L500 482.88L510 427.44L520 438.78L530 443.53L540 434.96L550 491.32L560 546.27L570 518.75L580 550.11L590 555.83L600 553.37L610 499.97L620 488.4L630 429.32L640 460.32L650 519.24L660 521.1L670 553.19L680 503.88L690 463.59L700 395.9L710 440.85L720 452.96L730 406.24L740 425.2L750 428.26L760 430.04L770 489.3L780 472.81L790 541.35L800 521.34L810 554.94L820 510.61L830 487.25L840 486.7L850 419.27L860 388.27L870 385.96L880 316.55L890 328.47L900 259.52L910 290.64L920 267.17L930 270.44L940 266.24L950 241.01L960 262.75L970 291.94L980 324.05L990 348.29L1000 365.78L1010 371.56L1020 405.73L1030 473.87L1040 413.81L1050 403.01L1060 419.96L1070 443.92L1080 471.13L1090 494.67L1100 525.08L1110 517.68L1120 487.79L1130 442.36L1140 414.4L1150 381.92L1160 373.02L1170 391.14L1180 398.41L1190 435.24L1200 411.81L1210 438.89L1220 490.16L1230 454.25L1240 424.68L1250 462.45L1260 482.29L1270 444.92L1280 447.05L1290 409.52L1300 391.66L1310 395.17L1320 421.74L1330 414.78L1340 432.35L1350 406.12L1360 416.12L1370 382.18L1380 403.64L1390 468.25L1400 509.98L1410 508.34L1420 465.57L1430 515.3L1440 546.28L1440 560L0 560z" fill="url(&quot;#SvgjsLinearGradient1005&quot;)"></path></g><defs><mask id="SvgjsMask1004"><rect width="1440" height="560" fill="#ffffff"></rect></mask><linearGradient x1="50%" y1="0%" x2="50%" y2="100%" id="SvgjsLinearGradient1005"><stop stop-opacity="0.65" stop-color="rgba(40, 184, 176, 1)" offset="0"></stop><stop stop-opacity="0" stop-color="#b6efec" offset="0.8"></stop></linearGradient></defs></svg>